<svg width="18" height="20" fill="none" xmlns="http://www.w3.org/2000/svg"><path d="M9.127.017C10.217 0 11.302.01 12.385 0c.066 1.276.525 2.575 1.459 3.477.932.924 2.25 1.348 3.532 1.49v3.357c-1.202-.04-2.41-.29-3.5-.807-.475-.215-.917-.492-1.35-.775-.006 2.435.01 4.867-.016 7.292a6.344 6.344 0 01-1.127 3.284c-1.09 1.599-2.982 2.64-4.925 2.673-1.192.068-2.383-.257-3.399-.856-1.683-.992-2.867-2.81-3.04-4.76a13.939 13.939 0 01-.01-1.24 6.247 6.247 0 012.152-4.134C3.541 7.8 5.475 7.227 7.285 7.565c.017 1.235-.033 2.468-.033 3.702-.827-.267-1.793-.192-2.516.31-.528.348-.928.86-1.137 1.458-.172.423-.123.892-.113 1.34.198 1.368 1.514 2.518 2.917 2.393.931-.01 1.823-.55 2.308-1.34.157-.277.332-.56.342-.886.082-1.49.05-2.975.06-4.466.006-3.36-.01-6.71.015-10.058V.017z" fill="#fff"/></svg>