<svg width="20" height="14" fill="none" xmlns="http://www.w3.org/2000/svg"><path d="M19.581 2.093a2.321 2.321 0 00-.638-1.058 2.542 2.542 0 00-1.115-.618C16.263.004 9.994.004 9.994.004A63.845 63.845 0 002.17.396a2.633 2.633 0 00-1.115.633 2.413 2.413 0 00-.648 1.063A24.238 24.238 0 00.001 6.67c-.01 1.534.125 3.066.406 4.578.114.399.337.763.646 1.057.309.294.694.507 1.117.62 1.586.41 7.824.41 7.824.41 2.617.03 5.233-.1 7.834-.39a2.55 2.55 0 001.115-.62c.308-.293.527-.66.637-1.057a23.65 23.65 0 00.418-4.579 22.148 22.148 0 00-.417-4.597v.001zm-11.58 7.43V3.818l5.216 2.853-5.216 2.852z" fill="#fff"/></svg>